<mxfile host="app.diagrams.net" modified="2024-03-22T00:11:07.980Z" agent="Mozilla/5.0 (X11; Ubuntu; Linux x86_64; rv:123.0) Gecko/20100101 Firefox/123.0" version="23.1.2" etag="4KAJd0SnOjCO6qnFP5N6" type="github">
  <diagram name="Page-1" id="kN4jBtj0iQMN5HaNGa7J">
    <mxGraphModel>
      <root>
        <mxCell id="0" />
        <mxCell id="1" parent="0" />
      </root>
    </mxGraphModel>
  </diagram>
</mxfile>
